#!OML:ASF F:\VICON\USERDATA\INSTALL\rory3\rory3.ASF
:FULLY-SPECIFIED
:DEGREES
1262
root 0.717622 15.841 -3.58224 346.627 8.8463 3.11068
lowerback 20.0241 -3.25647 -0.236562
upperback 11.2282 -4.20698 0.938772
thorax 1.05693 -2.13367 1.90238
lowerneck -12.0982 -1.76534 -10.4757
upperneck 35.7313 -1.02953 3.77548
head 14.4023 -1.33177 3.2496
rclavicle -3.79679e-014 1.82882e-014
rhumerus -68.1964 37.3705 -102.429
rradius 72.262
rwrist 15.3211
rhand -40.1072 8.17037
rfingers 7.12502
rthumb -13.0712 -21.4
lclavicle -3.79679e-014 1.82882e-014
lhumerus -18.2211 -9.209 89.1653
lradius 65.6056
lwrist -5.51449
lhand -16.329 18.8518
lfingers 7.12502
lthumb 9.88273 48.5998
rfemur -82.3219 -24.7599 20.834
rtibia 141.301
rfoot -7.55801 -1.51405
rtoes 3.41024
lfemur -49.0647 24.8378 -21.1411
ltibia 81.0669
lfoot 14.1884 -11.8538
ltoes -8.821
1263
root 0.70471 15.8335 -3.5925 346.39 9.16133 3.44676
lowerback 20.1765 -3.17144 -0.589176
upperback 11.1853 -4.15236 0.876538
thorax 0.952653 -2.11858 2.03474
lowerneck -11.9289 -1.78333 -10.6338
upperneck 35.2935 -1.14813 4.10303
head 14.1728 -1.34633 3.38108
rclavicle 2.06736e-014 -2.14687e-014
rhumerus -68.4737 37.5996 -102.543
rradius 72.3995
rwrist 14.893
rhand -39.7094 8.88474
rfingers 7.12502
rthumb -12.6876 -20.7099
lclavicle 2.06736e-014 -2.14687e-014
lhumerus -18.3073 -9.29083 89.1142
lradius 65.8162
lwrist -5.84624
lhand -15.8207 18.5656
lfingers 7.12502
lthumb 10.3731 48.2897
rfemur -82.1498 -25.3003 20.3239
rtibia 141.402
rfoot -7.47385 -1.42584
rtoes 3.72367
lfemur -49.4251 24.7403 -21.194
ltibia 82.7358
lfoot 14.2674 -12.1859
ltoes -8.15877
1264
root 0.693685 15.8287 -3.60387 346.192 9.2875 3.39337
lowerback 20.2021 -3.1274 -0.468077
upperback 11.2021 -4.0732 0.868994
thorax 0.945457 -2.07215 1.9454
lowerneck -12.0392 -1.81288 -10.7106
upperneck 35.0001 -1.24357 4.35787
head 14.0722 -1.35367 3.47677
rclavicle 4.47266e-014 -1.82882e-014
rhumerus -68.4961 37.7908 -102.531
rradius 72.4731
rwrist 14.6255
rhand -39.0747 9.74811
rfingers 7.12502
rthumb -12.0757 -19.8835
lclavicle 4.47266e-014 -1.82882e-014
lhumerus -18.2418 -9.37705 88.9941
lradius 66.0227
lwrist -6.02807
lhand -15.462 18.2747
lfingers 7.12502
lthumb 10.7192 47.9812
rfemur -82.0088 -25.3442 20.3845
rtibia 141.406
rfoot -7.38722 -1.67286
rtoes 3.70946
lfemur -49.9253 24.7855 -20.8136
ltibia 84.4611
lfoot 14.0243 -12.9746
ltoes -9.64203
1265
root 0.68144 15.8226 -3.61631 345.981 9.30161 3.19908
lowerback 20.1659 -3.08796 -0.201294
upperback 11.2676 -3.97655 0.891473
thorax 1.01451 -2.01213 1.79757
lowerneck -12.2957 -1.8669 -10.7608
upperneck 34.8286 -1.30817 4.45619
head 14.0589 -1.3678 3.51226
rclavicle 4.39314e-014 -3.81667e-014
rhumerus -68.3742 37.9695 -102.432
rradius 72.4967
rwrist 14.5817
rhand -38.6797 10.6466
rfingers 7.12502
rthumb -11.6948 -19.007
lclavicle 4.39314e-014 -3.81667e-014
lhumerus -18.0733 -9.40829 88.841
lradius 66.1548
lwrist -6.32925
lhand -16.0386 18.1385
lfingers 7.12502
lthumb 10.1629 47.873
rfemur -81.8539 -25.0908 20.6383
rtibia 141.382
rfoot -7.35883 -1.96458
rtoes 3.85058
lfemur -50.437 24.9496 -20.2006
ltibia 86.2477
lfoot 13.5535 -13.7472
ltoes -11.4674
1266
root 0.673051 15.8248 -3.62087 345.794 9.25771 3.43837
lowerback 20.0321 -2.93962 -0.335316
upperback 11.3238 -3.80915 0.804231
thorax 1.13929 -1.93244 1.74032
lowerneck -12.3999 -1.94048 -10.7789
upperneck 34.6236 -1.39942 4.46968
head 13.9993 -1.39993 3.50108
rclavicle 2.04748e-014 -1.35174e-014
rhumerus -68.3355 38.0452 -102.332
rradius 72.5969
rwrist 14.2971
rhand -38.1116 11.5034
rfingers 7.12502
rthumb -11.1469 -18.1805
lclavicle 2.04748e-014 -1.35174e-014
lhumerus -18.0714 -9.47545 88.7471
lradius 66.3417
lwrist -6.6742
lhand -16.6757 18.4263
lfingers 7.12502
lthumb 9.54823 48.19
rfemur -81.5246 -24.9983 20.2391
rtibia 141.377
rfoot -7.46017 -1.77065
rtoes 4.04778
lfemur -50.6527 25.2389 -19.9856
ltibia 87.9133
lfoot 13.2293 -13.8812
ltoes -11.2988
1267
root 0.668322 15.8368 -3.61567 345.615 9.26449 4.2277
lowerback 19.8115 -2.70627 -0.996485
upperback 11.4083 -3.61923 0.540075
thorax 1.35949 -1.8623 1.78281
lowerneck -12.4557 -2.00452 -10.7366
upperneck 34.4624 -1.50587 4.49982
head 13.9488 -1.43056 3.48502
rclavicle -3.65764e-014 2.94201e-014
rhumerus -68.3057 38.088 -102.29
rradius 72.722
rwrist 13.7286
rhand -37.0308 12.3311
rfingers 7.12502
rthumb -10.1043 -17.4062
lclavicle -3.65764e-014 2.94201e-014
lhumerus -18.2073 -9.51285 88.6272
lradius 66.6373
lwrist -7.0708
lhand -16.3123 19.0893
lfingers 7.12502
lthumb 9.89888 48.8366
rfemur -81.0426 -25.305 19.0875
rtibia 141.417
rfoot -7.57198 -1.23192
rtoes 3.40474
lfemur -50.5036 25.5683 -20.3509
ltibia 89.4573
lfoot 12.6524 -13.8297
ltoes -11.0087
1268
root 0.651874 15.8948 -3.63938 345.396 9.29761 4.63102
lowerback 19.6802 -2.55337 -1.33105
upperback 11.5203 -3.47507 0.365129
thorax 1.55155 -1.80261 1.74976
lowerneck -12.5874 -2.06087 -10.6088
upperneck 34.2874 -1.60091 4.48753
head 13.9063 -1.45025 3.43807
rclavicle 2.72335e-014 -2.78299e-014
rhumerus -68.1061 38.1237 -102.214
rradius 72.7212
rwrist 13.6758
rhand -36.2553 13.1604
rfingers 7.12502
rthumb -9.35613 -16.612
lclavicle 2.72335e-014 -2.78299e-014
lhumerus -18.1845 -9.50863 88.4335
lradius 66.7955
lwrist -7.54628
lhand -15.9483 19.6446
lfingers 7.12502
lthumb 10.2501 49.3749
rfemur -80.1802 -25.4009 18.5349
rtibia 141.04
rfoot -7.64753 -0.993492
rtoes 3.33226
lfemur -50.3275 25.8204 -20.3595
ltibia 90.7514
lfoot 11.8972 -14.0286
ltoes -12.2544
1269
root 0.641024 15.8922 -3.64959 345.245 9.43768 4.70896
lowerback 19.5862 -2.50963 -1.36947
upperback 11.5881 -3.42261 0.310379
thorax 1.66957 -1.77725 1.69754
lowerneck -12.7762 -2.09806 -10.6141
upperneck 34.1091 -1.6457 4.53903
head 13.873 -1.45675 3.44836
rclavicle -1.96797e-014 -2.38542e-015
rhumerus -67.8773 38.2983 -102.061
rradius 72.6673
rwrist 13.998
rhand -35.8981 14.0939
rfingers 7.12502
rthumb -9.01145 -15.6936
lclavicle -1.96797e-014 -2.38542e-015
lhumerus -18.016 -9.42575 88.2685
lradius 66.8016
lwrist -7.92528
lhand -16.4475 19.0657
lfingers 7.12502
lthumb 9.76843 48.8192
rfemur -79.9758 -25.5033 18.3798
rtibia 141.031
rfoot -7.47314 -0.827132
rtoes 4.05093
lfemur -50.7409 25.9002 -20.0941
ltibia 92.402
lfoot 11.4194 -14.1597
ltoes -12.4754
1270
root 0.630246 15.885 -3.65916 345.076 9.68938 4.86888
lowerback 19.663 -2.4814 -1.50894
upperback 11.5937 -3.40699 0.258584
thorax 1.64196 -1.7735 1.72188
lowerneck -12.9876 -2.13978 -10.6977
upperneck 34.0006 -1.66582 4.57224
head 13.8758 -1.46676 3.47095
rclavicle 3.69739e-014 -2.22639e-014
rhumerus -67.737 38.4296 -101.872
rradius 72.6407
rwrist 14.3182
rhand -35.4714 15.0057
rfingers 7.12502
rthumb -8.59969 -14.7992
lclavicle 3.69739e-014 -2.22639e-014
lhumerus -17.9412 -9.29658 88.1877
lradius 66.8762
lwrist -8.196
lhand -17.2594 18.1553
lfingers 7.12502
lthumb 8.98507 47.9439
rfemur -79.8589 -25.7752 18.1064
rtibia 141.039
rfoot -7.19704 -0.610621
rtoes 4.44055
lfemur -51.0782 25.8823 -19.9285
ltibia 94.0746
lfoot 11.0859 -14.2045
ltoes -11.8175
1271
root 0.616615 15.879 -3.66861 344.91 9.90137 4.93018
lowerback 19.7594 -2.46595 -1.60896
upperback 11.5755 -3.40251 0.233363
thorax 1.57828 -1.77393 1.75582
lowerneck -13.2094 -2.15514 -10.718
upperneck 33.88 -1.6394 4.534
head 13.8694 -1.45767 3.45983
rclavicle 4.19436e-014 -8.74653e-015
rhumerus -67.6929 38.634 -101.791
rradius 72.6178
rwrist 14.689
rhand -34.9904 15.7057
rfingers 7.12502
rthumb -8.13555 -14.1177
lclavicle 4.19436e-014 -8.74653e-015
lhumerus -17.9799 -9.12821 88.1198
lradius 66.9941
lwrist -8.37837
lhand -17.5767 18.1296
lfingers 7.12502
lthumb 8.67884 47.9312
rfemur -79.7144 -25.9481 18.0082
rtibia 141.033
rfoot -7.0688 -0.402841
rtoes 4.45147
lfemur -51.4387 25.941 -19.6511
ltibia 95.8123
lfoot 10.7447 -14.3131
ltoes -10.8488
1272
root 0.600915 15.8771 -3.67971 344.758 10.0885 5.04469
lowerback 19.8178 -2.42143 -1.77082
upperback 11.5725 -3.37044 0.171554
thorax 1.55069 -1.76283 1.77858
lowerneck -13.3726 -2.20322 -10.8082
upperneck 33.6954 -1.69439 4.62924
head 13.831 -1.47394 3.50076
rclavicle 2.36554e-014 -1.82882e-014
rhumerus -67.6438 38.7672 -101.774
rradius 72.6173
rwrist 15.1364
rhand -34.254 15.8531
rfingers 7.12502
rthumb -7.42473 -13.9966
lclavicle 2.36554e-014 -1.82882e-014
lhumerus -17.9963 -9.05439 88.0222
lradius 66.9963
lwrist -8.49286
lhand -17.7496 18.5466
lfingers 7.12502
lthumb 8.51198 48.355
rfemur -79.545 -26.1081 17.8537
rtibia 141.021
rfoot -7.07368 -0.132585
rtoes 4.15091
lfemur -51.7963 26.0843 -19.4605
ltibia 97.5497
lfoot 10.3263 -14.4182
ltoes -10.5115
1273
root 0.586066 15.8701 -3.68866 344.559 10.199 5.00777
lowerback 19.8875 -2.38579 -1.76207
upperback 11.5884 -3.32257 0.120372
thorax 1.52705 -1.73572 1.71405
lowerneck -13.5536 -2.26878 -10.8522
upperneck 33.5435 -1.78161 4.71131
head 13.8136 -1.50094 3.52423
rclavicle 3.97569e-015 -1.82882e-014
rhumerus -67.5823 38.8902 -101.788
rradius 72.6866
rwrist 15.4423
rhand -33.6066 16.1492
rfingers 7.12502
rthumb -6.7998 -13.7216
lclavicle 3.97569e-015 -1.82882e-014
lhumerus -17.9978 -8.97028 87.88
lradius 67.037
lwrist -8.5869
lhand -17.6618 18.7838
lfingers 7.12502
lthumb 8.59671 48.5888
rfemur -79.378 -26.121 17.901
rtibia 141.032
rfoot -7.1448 0.0106416
rtoes 3.56203
lfemur -52.1527 26.4408 -19.1282
ltibia 99.34
lfoot 9.7881 -14.5856
ltoes -11.0571
1274
root 0.571604 15.8607 -3.69804 344.423 10.297 4.98088
lowerback 19.9932 -2.36379 -1.75131
upperback 11.5933 -3.29273 0.0661077
thorax 1.47384 -1.71705 1.65024
lowerneck -13.9338 -2.35115 -10.8917
upperneck 33.4318 -1.85761 4.7562
head 13.8576 -1.52741 3.53518
rclavicle -7.7526e-015 -3.18055e-015
rhumerus -67.4419 39.107 -101.768
rradius 72.7198
rwrist 15.6698
rhand -33.1664 16.7621
rfingers 7.12502
rthumb -6.37486 -13.1219
lclavicle -7.7526e-015 -3.18055e-015
lhumerus -17.9168 -8.79698 87.6741
lradius 67.1391
lwrist -8.53519
lhand -17.5939 18.8874
lfingers 7.12502
lthumb 8.66226 48.6897
rfemur -79.3258 -26.0859 17.9804
rtibia 141.062
rfoot -7.07072 0.0833425
rtoes 3.4258
lfemur -52.6188 26.8189 -18.8305
ltibia 101.093
lfoot 9.42157 -14.5942
ltoes -11.5842
1275
root 0.558904 15.8578 -3.70802 344.358 10.4529 5.11661
lowerback 20.0456 -2.34132 -1.86403
upperback 11.6281 -3.28175 -0.03737
thorax 1.48576 -1.71316 1.60338
lowerneck -14.4197 -2.47679 -11.0249
upperneck 33.2713 -1.99654 4.91881
head 13.9125 -1.57529 3.59926
rclavicle -8.15017e-015 -1.98785e-014
rhumerus -67.1047 39.3204 -101.657
rradius 72.6429
rwrist 15.8636
rhand -32.5352 17.2482
rfingers 7.12502
rthumb -5.76542 -12.6534
lclavicle -8.15017e-015 -1.98785e-014
lhumerus -17.6366 -8.60866 87.4212
lradius 67.1498
lwrist -8.38415
lhand -17.7093 18.7357
lfingers 7.12502
lthumb 8.55085 48.5426
rfemur -79.2805 -26.1342 17.8195
rtibia 141.071
rfoot -6.93631 0.248861
rtoes 3.48416
lfemur -53.0214 27.0621 -18.7356
ltibia 102.714
lfoot 9.0341 -14.4802
ltoes -12.5577
1276
root 0.544843 15.8543 -3.71626 344.149 10.5538 5.06932
lowerback 20.1058 -2.32818 -1.80946
upperback 11.733 -3.25431 -0.108014
thorax 1.56173 -1.69484 1.49261
lowerneck -14.8132 -2.62383 -11.1813
upperneck 33.0781 -2.17797 5.10552
head 13.9382 -1.64062 3.6688
rclavicle -1.09332e-014 3.18055e-015
rhumerus -66.7263 39.51 -101.562
rradius 72.5661
rwrist 15.854
rhand -31.9361 17.4849
rfingers 7.12502
rthumb -5.18707 -12.4316
lclavicle -1.09332e-014 3.18055e-015
lhumerus -17.3107 -8.50594 87.1956
lradius 67.144
lwrist -8.24751
lhand -17.8421 18.6095
lfingers 7.12502
lthumb 8.42268 48.4216
rfemur -79.0249 -26.0683 17.8408
rtibia 141.058
rfoot -6.90164 0.278369
rtoes 3.82861
lfemur -53.2228 27.4327 -18.4028
ltibia 104.232
lfoot 8.628 -14.4435
ltoes -14.286
